<svg xmlns="http://www.w3.org/2000/svg" xmlns:lucid="lucid" width="120" height="120"><g lucid:page-tab-id="uv5EYE1UFW77"><path d="M-532.62-792.7h4500v2000h-4500z" fill="#fff"/><path d="M0 0h120v120H0V0z" stroke="#fff" stroke-opacity="0" stroke-width="2" fill="#3f8624"/><path d="M26.8 56.84l3.02-.95 9.75 31.67-3.03.94-9.74-31.66z" stroke="#fff" stroke-opacity="0" stroke-width="1.91" fill="#fff"/><path d="M29.73 46.64l24.4-16.95 1.8 2.6-24.4 16.94-1.8-2.6z" stroke="#fff" stroke-opacity="0" stroke-width="1.64" fill="#fff"/><path d="M63.96 32.05l1.8-2.6L90.14 46.5l-1.8 2.6-24.38-17.05z" stroke="#fff" stroke-opacity="0" stroke-width="1.15" fill="#fff"/><path d="M80.44 86.98l9.62-31.82 3.04.9-9.62 31.84-3.04-.92z" stroke="#fff" stroke-opacity="0" stroke-width=".58" fill="#fff"/><path d="M45.38 90.1h29.24v3.16H45.38V90.1zM60 34.77c-3.53 0-6.4-2.87-6.4-6.4 0-3.54 2.87-6.4 6.4-6.4 3.53 0 6.4 2.86 6.4 6.4 0 3.53-2.87 6.4-6.4 6.4zm0-9.74c-1.82 0-3.3 1.47-3.3 3.3 0 1.8 1.48 3.3 3.3 3.3 1.82 0 3.3-1.5 3.3-3.3 0-1.83-1.48-3.3-3.3-3.3z" stroke="#fff" stroke-opacity="0" stroke-width="2" fill="#fff"/><path d="M40.5 98.14c-3.54 0-6.4-2.86-6.4-6.4 0-3.53 2.86-6.4 6.4-6.4 3.53 0 6.4 2.87 6.4 6.4 0 3.54-2.87 6.4-6.4 6.4zm0-9.74h-.1c-1.82.05-3.24 1.58-3.2 3.4.06 1.8 1.57 3.25 3.4 3.2 1.82-.07 3.25-1.58 3.2-3.4-.05-1.8-1.5-3.2-3.3-3.2zM79.5 98.14c-3.53 0-6.4-2.86-6.4-6.4 0-3.53 2.87-6.4 6.4-6.4 3.54 0 6.4 2.87 6.4 6.4 0 3.54-2.86 6.4-6.4 6.4zm0-9.74h-.1c-1.83.05-3.26 1.58-3.2 3.4.05 1.8 1.56 3.25 3.38 3.2 1.83-.07 3.25-1.58 3.2-3.4-.04-1.8-1.5-3.2-3.28-3.2zM27.1 57.94c-3.53 0-6.4-2.87-6.4-6.4 0-3.54 2.87-6.4 6.4-6.4 3.54 0 6.4 2.86 6.4 6.4 0 3.53-2.86 6.4-6.4 6.4zm0-9.77H27c-1.82 0-3.3 1.48-3.3 3.3 0 1.82 1.48 3.3 3.3 3.3 1.83 0 3.3-1.48 3.3-3.3 0-1.8-1.4-3.24-3.2-3.3zM92.9 57.94c-3.54 0-6.4-2.87-6.4-6.4 0-3.54 2.86-6.4 6.4-6.4 3.53 0 6.4 2.86 6.4 6.4 0 3.53-2.87 6.4-6.4 6.4zm0-9.77c-1.82 0-3.3 1.48-3.3 3.3 0 1.82 1.48 3.3 3.3 3.3 1.8 0 3.3-1.48 3.3-3.3 0-1.82-1.5-3.3-3.3-3.3zM58.42 33.18h3.16v8.53h-3.16V33.2z" stroke="#fff" stroke-opacity="0" stroke-width="2" fill="#fff"/><path d="M31.35 55.35l1.25-2.9 8.52 3.65-1.25 2.9-8.52-3.65z" stroke="#fff" stroke-opacity="0" stroke-width=".79" fill="#fff"/><path d="M41.6 87.15l4.88-7.3 2.64 1.75-4.87 7.3-2.64-1.75z" stroke="#fff" stroke-opacity="0" stroke-width="1.11" fill="#fff"/><path d="M70.87 81.6l2.63-1.75 4.88 7.3-2.64 1.76-4.87-7.3z" stroke="#fff" stroke-opacity="0" stroke-width="1.66" fill="#fff"/><path d="M78.87 56.1l8.53-3.66 1.25 2.9-8.53 3.67-1.25-2.9z" stroke="#fff" stroke-opacity="0" stroke-width="1.84" fill="#fff"/><path d="M47.33 56.4c-.84 0-1.53-.64-1.6-1.47l-.45-6.08 3.2-.23.32 4.5 4.48-.32.24 3.2-6.08.45z" stroke="#fff" stroke-opacity="0" stroke-width="2" fill="#fff"/><path d="M59.98 79.22c-8.98 0-16.3-7.25-16.36-16.26h3.2c-.02 4.3 1.85 7.96 5.32 10.52 5.84 4.36 14.1 3.15 18.47-2.72 4.37-5.87 3.16-14.12-2.68-18.48-5.87-4.36-14.14-3.15-18.5 2.72l-2.52-1.9c5.37-7.28 15.64-8.78 22.9-3.38 7.27 5.4 8.78 15.67 3.37 22.9-3.22 4.33-7.8 6.63-13.16 6.63z" stroke="#fff" stroke-opacity="0" stroke-width="2" fill="#fff"/></g></svg>