<svg xmlns="http://www.w3.org/2000/svg" xmlns:xlink="http://www.w3.org/1999/xlink" xmlns:lucid="lucid" width="133.59" height="149"><g transform="translate(956.1945830389503 -28.821078431418982)" lucid:page-tab-id="uv5EYE1UFW77"><path d="M-1000-500h4500v2000h-4500z" fill="#fff"/><path d="M-948.82 28.82h120v120h-120v-120z" stroke="#fff" stroke-opacity="0" stroke-width="2" fill="#d86613"/><path d="M-852.02 93.62h-8.02v-3.18h8.02V52h-38.44v8.02h-3.18V52c0-1.74 1.43-3.18 3.18-3.18h38.44c1.75 0 3.18 1.44 3.18 3.18v38.44c0 1.75-1.43 3.18-3.18 3.18zM-887.22 128.82h-38.44c-1.75 0-3.18-1.43-3.18-3.18V87.2c0-1.75 1.43-3.18 3.18-3.18h8.02v3.18h-8.02v38.44h38.44v-8.02h3.18v8.02c0 1.75-1.43 3.18-3.18 3.18z" stroke="#fff" stroke-opacity="0" stroke-width="2" fill="#fff"/><path d="M-863.22 74.43V71.2h-4.82c-.1-1.68-1.48-3.06-3.17-3.17v-4.8h-3.24v4.8h-4.76v-4.8h-3.22v4.8h-4.82v-4.8h-3.17v4.8h-4.82v-4.8h-3.18v4.8h-4.8v-4.8h-3.24v4.8c-1.7.1-3.07 1.5-3.17 3.18h-4.82v3.23h4.8v4.82h-4.8v3.17h4.8v4.8h-4.8v3.2h4.8v4.8h-4.8v3.23h4.8v4.76h-4.8v3.23h4.8c.1 1.7 1.5 3.08 3.18 3.18v4.82h3.23v-4.8h4.8v4.8h3.18v-4.8h4.8v4.8h3.18v-4.8h4.82v4.8h3.22v-4.8h4.76v4.8h3.23v-4.8c1.68-.1 3.06-1.5 3.16-3.2h4.82v-3.2h-4.82v-4.77h4.82v-3.23h-4.82v-4.8h4.82v-3.2h-4.82v-4.8h4.82v-3.17h-4.82v-4.82zm-8 31.7c0 .15-.14.3-.3.3h-34.6c-.16 0-.32-.15-.32-.3V71.5c0-.14.16-.3.3-.3h34.62c.15 0 .3.16.3.3z" stroke="#fff" stroke-opacity="0" stroke-width="2" fill="#fff"/><use xlink:href="#a" transform="matrix(1,0,0,1,-978.82421266858,157.82107843141898) translate(24.629629629629633 17.77777777777778)"/><use xlink:href="#b" transform="matrix(1,0,0,1,-978.82421266858,157.82107843141898) translate(112.22222222222223 17.77777777777778)"/><defs><path fill="#282c33" d="M205 0l-28-72H64L36 0H1l101-248h38L239 0h-34zm-38-99l-47-123c-12 45-31 82-46 123h93" id="c"/><path fill="#282c33" d="M210-169c-67 3-38 105-44 169h-31v-121c0-29-5-50-35-48C34-165 62-65 56 0H25l-1-190h30c1 10-1 24 2 32 10-44 99-50 107 0 11-21 27-35 58-36 85-2 47 119 55 194h-31v-121c0-29-5-49-35-48" id="d"/><path fill="#282c33" d="M141-36C126-15 110 5 73 4 37 3 15-17 15-53c-1-64 63-63 125-63 3-35-9-54-41-54-24 1-41 7-42 31l-33-3c5-37 33-52 76-52 45 0 72 20 72 64v82c-1 20 7 32 28 27v20c-31 9-61-2-59-35zM48-53c0 20 12 33 32 33 41-3 63-29 60-74-43 2-92-5-92 41" id="e"/><path fill="#282c33" d="M9 0v-24l116-142H16v-24h144v24L44-24h123V0H9" id="f"/><path fill="#282c33" d="M100-194c62-1 85 37 85 99 1 63-27 99-86 99S16-35 15-95c0-66 28-99 85-99zM99-20c44 1 53-31 53-75 0-43-8-75-51-75s-53 32-53 75 10 74 51 75" id="g"/><path fill="#282c33" d="M117-194c89-4 53 116 60 194h-32v-121c0-31-8-49-39-48C34-167 62-67 57 0H25l-1-190h30c1 10-1 24 2 32 11-22 29-35 61-36" id="h"/><g id="a"><use transform="matrix(0.06172839506172839,0,0,0.06172839506172839,0,0)" xlink:href="#c"/><use transform="matrix(0.06172839506172839,0,0,0.06172839506172839,14.814814814814813,0)" xlink:href="#d"/><use transform="matrix(0.06172839506172839,0,0,0.06172839506172839,33.2716049382716,0)" xlink:href="#e"/><use transform="matrix(0.06172839506172839,0,0,0.06172839506172839,45.61728395061728,0)" xlink:href="#f"/><use transform="matrix(0.06172839506172839,0,0,0.06172839506172839,56.72839506172839,0)" xlink:href="#g"/><use transform="matrix(0.06172839506172839,0,0,0.06172839506172839,69.07407407407408,0)" xlink:href="#h"/></g><path fill="#282c33" d="M30 0v-248h187v28H63v79h144v27H63v87h162V0H30" id="i"/><path fill="#282c33" d="M212-179c-10-28-35-45-73-45-59 0-87 40-87 99 0 60 29 101 89 101 43 0 62-24 78-52l27 14C228-24 195 4 139 4 59 4 22-46 18-125c-6-104 99-153 187-111 19 9 31 26 39 46" id="j"/><path fill="#282c33" d="M101-251c82-7 93 87 43 132L82-64C71-53 59-42 53-27h129V0H18c2-99 128-94 128-182 0-28-16-43-45-43s-46 15-49 41l-32-3c6-41 34-60 81-64" id="k"/><g id="b"><use transform="matrix(0.06172839506172839,0,0,0.06172839506172839,0,0)" xlink:href="#i"/><use transform="matrix(0.06172839506172839,0,0,0.06172839506172839,14.814814814814813,0)" xlink:href="#j"/><use transform="matrix(0.06172839506172839,0,0,0.06172839506172839,30.80246913580247,0)" xlink:href="#k"/></g></defs></g></svg>