<svg xmlns="http://www.w3.org/2000/svg" xmlns:xlink="http://www.w3.org/1999/xlink" xmlns:lucid="lucid" width="160.95" height="149"><g transform="translate(-949.3014705881849 -603.2656862744714)" lucid:page-tab-id="uv5EYE1UFW77"><path d="M-1000-500h4500v2000h-4500z" fill="#fff"/><path d="M970.23 603.27h120v120h-120v-120z" stroke="#000" stroke-opacity="0" fill="url(#a)"/><path d="M1067.8 642.7c0-2.1-1.74-3.75-3.8-3.75-2.07 0-3.72 1.65-3.72 3.75s1.65 3.75 3.7 3.75c2.08 0 3.8-1.65 3.8-3.75zm-33.86 35.63c0-2.1-1.65-3.75-3.7-3.75-2.08 0-3.73 1.65-3.73 3.75s1.66 3.75 3.73 3.75c2.06 0 3.7-1.65 3.7-3.75zm-33.77 3.75c0-2.1-1.65-3.75-3.7-3.75-2.08 0-3.8 1.65-3.8 3.75s1.73 3.75 3.8 3.75c2.05 0 3.7-1.65 3.7-3.75zm26.34-30c0 2.1 1.66 3.75 3.73 3.75 2.06 0 3.7-1.65 3.7-3.75s-1.64-3.75-3.7-3.75c-2.07 0-3.72 1.65-3.72 3.75zm45-9.38c0 4.13-3.38 7.5-7.5 7.5-1.33 0-2.65-.37-3.72-1.05l-23.6 25.35c.65 1.13 1.06 2.4 1.06 3.83 0 4.12-3.4 7.5-7.5 7.5-4.14 0-7.53-3.38-7.53-7.5 0-3.45 2.4-6.38 5.63-7.2v-11.85c-.74-.15-1.4-.45-1.98-.83l-23.37 20.03c.58 1.05 1 2.25 1 3.6 0 4.12-3.4 7.5-7.52 7.5-4.13 0-7.5-3.38-7.5-7.5 0-4.13 3.37-7.5 7.5-7.5 1.5 0 2.8.45 3.96 1.12l23.28-19.95c-.57-1.12-1-2.32-1-3.67 0-4.13 3.4-7.5 7.53-7.5 4.12 0 7.5 3.37 7.5 7.5 0 3.45-2.38 6.37-5.6 7.2v11.85c.66.15 1.23.37 1.8.75l23.62-25.35c-.66-1.13-1.07-2.4-1.07-3.83 0-4.12 3.4-7.5 7.5-7.5 4.14 0 7.53 3.38 7.53 7.5zm-73.14-13.12h63.74v3.75h3.8v-5.63c0-1.05-.83-1.87-1.9-1.87h-67.54c-1.07 0-1.9.82-1.9 1.87v45h3.8v-43.12zm63.74 22.5h3.8v46.87c0 1.05-.83 1.88-1.9 1.88h-67.54c-1.07 0-1.9-.83-1.9-1.88v-7.5h3.8v5.63h63.74v-45z" stroke="#000" stroke-opacity="0" fill="#fff"/><use xlink:href="#b" transform="matrix(1,0,0,1,940.2264705881848,732.2656862744714) translate(11.074999999999989 14.4)"/><use xlink:href="#c" transform="matrix(1,0,0,1,940.2264705881848,732.2656862744714) translate(82.02499999999999 14.4)"/><defs><linearGradient gradientUnits="userSpaceOnUse" id="a" x1="970.23" y1="723.27" x2="1090.23" y2="603.27"><stop offset="0%" stop-color="#4d27a8"/><stop offset="100%" stop-color="#a166ff"/></linearGradient><path d="M205 0l-28-72H64L36 0H1l101-248h38L239 0h-34zm-38-99l-47-123c-12 45-31 82-46 123h93" id="d"/><path d="M210-169c-67 3-38 105-44 169h-31v-121c0-29-5-50-35-48C34-165 62-65 56 0H25l-1-190h30c1 10-1 24 2 32 10-44 99-50 107 0 11-21 27-35 58-36 85-2 47 119 55 194h-31v-121c0-29-5-49-35-48" id="e"/><path d="M141-36C126-15 110 5 73 4 37 3 15-17 15-53c-1-64 63-63 125-63 3-35-9-54-41-54-24 1-41 7-42 31l-33-3c5-37 33-52 76-52 45 0 72 20 72 64v82c-1 20 7 32 28 27v20c-31 9-61-2-59-35zM48-53c0 20 12 33 32 33 41-3 63-29 60-74-43 2-92-5-92 41" id="f"/><path d="M9 0v-24l116-142H16v-24h144v24L44-24h123V0H9" id="g"/><path d="M100-194c62-1 85 37 85 99 1 63-27 99-86 99S16-35 15-95c0-66 28-99 85-99zM99-20c44 1 53-31 53-75 0-43-8-75-51-75s-53 32-53 75 10 74 51 75" id="h"/><path d="M117-194c89-4 53 116 60 194h-32v-121c0-31-8-49-39-48C34-167 62-67 57 0H25l-1-190h30c1 10-1 24 2 32 11-22 29-35 61-36" id="i"/><g id="b"><use transform="matrix(0.05,0,0,0.05,0,0)" xlink:href="#d"/><use transform="matrix(0.05,0,0,0.05,12,0)" xlink:href="#e"/><use transform="matrix(0.05,0,0,0.05,26.950000000000003,0)" xlink:href="#f"/><use transform="matrix(0.05,0,0,0.05,36.95,0)" xlink:href="#g"/><use transform="matrix(0.05,0,0,0.05,45.95,0)" xlink:href="#h"/><use transform="matrix(0.05,0,0,0.05,55.95,0)" xlink:href="#i"/></g><path d="M140-251c81 0 123 46 123 126C263-53 228-8 163 1c7 30 30 48 69 40v23c-55 16-95-15-103-61C56-3 17-48 17-125c0-80 42-126 123-126zm0 227c63 0 89-41 89-101s-29-99-89-99c-61 0-89 39-89 99S79-25 140-24" id="j"/><path d="M84 4C-5 8 30-112 23-190h32v120c0 31 7 50 39 49 72-2 45-101 50-169h31l1 190h-30c-1-10 1-25-2-33-11 22-28 36-60 37" id="k"/><path d="M24-231v-30h32v30H24zM24 0v-190h32V0H24" id="l"/><path d="M96-169c-40 0-48 33-48 73s9 75 48 75c24 0 41-14 43-38l32 2c-6 37-31 61-74 61-59 0-76-41-82-99-10-93 101-131 147-64 4 7 5 14 7 22l-32 3c-4-21-16-35-41-35" id="m"/><path d="M143 0L79-87 56-68V0H24v-261h32v163l83-92h37l-77 82L181 0h-38" id="n"/><path d="M185-189c-5-48-123-54-124 2 14 75 158 14 163 119 3 78-121 87-175 55-17-10-28-26-33-46l33-7c5 56 141 63 141-1 0-78-155-14-162-118-5-82 145-84 179-34 5 7 8 16 11 25" id="o"/><path d="M177-190C167-65 218 103 67 71c-23-6-38-20-44-43l32-5c15 47 100 32 89-28v-30C133-14 115 1 83 1 29 1 15-40 15-95c0-56 16-97 71-98 29-1 48 16 59 35 1-10 0-23 2-32h30zM94-22c36 0 50-32 50-73 0-42-14-75-50-75-39 0-46 34-46 75s6 73 46 73" id="p"/><path d="M106-169C34-169 62-67 57 0H25v-261h32l-1 103c12-21 28-36 61-36 89 0 53 116 60 194h-32v-121c2-32-8-49-39-48" id="q"/><path d="M59-47c-2 24 18 29 38 22v24C64 9 27 4 27-40v-127H5v-23h24l9-43h21v43h35v23H59v120" id="r"/><g id="c"><use transform="matrix(0.05,0,0,0.05,0,0)" xlink:href="#j"/><use transform="matrix(0.05,0,0,0.05,14,0)" xlink:href="#k"/><use transform="matrix(0.05,0,0,0.05,24,0)" xlink:href="#l"/><use transform="matrix(0.05,0,0,0.05,27.950000000000003,0)" xlink:href="#m"/><use transform="matrix(0.05,0,0,0.05,36.95,0)" xlink:href="#n"/><use transform="matrix(0.05,0,0,0.05,45.95,0)" xlink:href="#o"/><use transform="matrix(0.05,0,0,0.05,57.95,0)" xlink:href="#l"/><use transform="matrix(0.05,0,0,0.05,61.900000000000006,0)" xlink:href="#p"/><use transform="matrix(0.05,0,0,0.05,71.9,0)" xlink:href="#q"/><use transform="matrix(0.05,0,0,0.05,81.9,0)" xlink:href="#r"/></g></defs></g></svg>