<svg xmlns="http://www.w3.org/2000/svg" xmlns:xlink="http://www.w3.org/1999/xlink" xmlns:lucid="lucid" width="146.9" height="146"><g transform="translate(-950.8231236856698 -139.34019607847785)" lucid:page-tab-id="uv5EYE1UFW77"><path d="M-1000-500h4500v2000h-4500z" fill="#fff"/><path d="M964.77 139.34h120v120h-120v-120z" stroke="#000" stroke-opacity="0" fill="url(#a)"/><path d="M1061.68 198.6c2.06 3.55 4.37 7.6 4.37 13.54 0 10-8.1 17.42-21.7 19.9-10 1.8-18.34 8.17-18.42 8.17-.33.26-.74.42-1.16.42-.4 0-.82-.16-1.15-.4-.1 0-8.42-6.37-18.4-8.2-13.64-2.46-21.73-9.9-21.73-19.88 0-5.95 2.3-10 4.37-13.54 1.8-3.06 3.3-5.7 3.3-9.25 0-7.6-5.86-12.38-5.86-12.47-.4-.24-.65-.74-.73-1.23 0-.5.08-1 .4-1.4.1-.1 9.67-11.73 11.9-14.7.33-.42.82-.75 1.4-.75.5-.08 1.08.17 1.5.58 3.54 3.88 7.83 5.94 11.88 5.94 4.54 0 8.17-1.98 11.64-6.6.73-.9 2.22-.9 2.96 0 3.47 4.62 7.1 6.6 11.64 6.6 4.05 0 8.34-2.06 11.9-5.94.4-.4.98-.66 1.48-.58.57 0 1.07.33 1.4.75 2.23 2.97 11.8 14.6 11.9 14.7.32.4.4.9.4 1.4-.08.5-.33 1-.74 1.23 0 .1-5.87 4.96-5.87 12.47 0 3.55 1.5 6.2 3.3 9.25zm-18 29.72c4.38-.74 18.66-4.2 18.66-16.18 0-4.96-1.9-8.26-3.88-11.64-1.9-3.22-3.88-6.6-3.88-11.15 0-6.85 3.88-11.8 5.94-14.03-2.14-2.65-6.93-8.5-9.5-11.8-4.04 3.62-8.58 5.6-13.12 5.6-5.12 0-9.33-1.98-13.13-6.27-3.8 4.3-8 6.27-13.12 6.27-4.54 0-9.1-1.98-13.13-5.6-2.56 3.3-7.35 9.15-9.5 11.8 2.15 2.22 5.95 7.18 5.95 14.03 0 4.54-1.98 7.93-3.88 11.15-2 3.38-3.9 6.68-3.9 11.64 0 11.97 14.3 15.44 18.67 16.18 8.75 1.57 16.18 6.2 18.9 8.1 2.73-1.9 10.16-6.53 18.9-8.1zm6.1-38.97c0 5.86 2.4 9.9 4.47 13.54 1.98 3.46 3.22 5.77 3.22 9.24 0 8.17-11.23 10.8-14.62 11.47-7.1 1.25-13.2 4.22-17.17 6.53-.25.17-.58.25-.9.25-.34 0-.67-.08-.9-.25-3.98-2.3-10.1-5.28-17.1-6.52-3.47-.65-14.7-3.3-14.7-11.46 0-3.47 1.24-5.78 3.22-9.25 2.06-3.64 4.46-7.7 4.46-13.55 0-4.54-1.32-8.92-3.8-12.88-.4-.74-.4-1.57.16-2.23.75-.9 1.5-1.8 2.23-2.8.58-.75 1.57-.9 2.4-.5 3.55 1.98 7.18 2.97 10.9 2.97 4.54 0 8.5-1.23 12.05-3.7.66-.42 1.5-.42 2.15 0 3.55 2.47 7.5 3.7 12.05 3.7 3.7 0 7.35-.98 10.9-2.96.82-.4 1.8-.25 2.4.5.73 1 1.48 1.9 2.22 2.8.58.66.58 1.5.17 2.23-2.5 3.96-3.8 8.34-3.8 12.88zm-7.67 30.55c2-.33 11.65-2.3 11.65-7.76 0-2.56-.9-4.3-2.72-7.35-2.15-3.64-4.96-8.6-4.96-15.45 0-4.8 1.24-9.4 3.64-13.7-.16-.25-.32-.42-.5-.66-3.62 1.8-7.5 2.7-11.3 2.7-4.8 0-9.25-1.23-13.13-3.7-3.88 2.47-8.34 3.7-13.12 3.7-3.8 0-7.68-.9-11.3-2.7-.18.23-.35.4-.5.65 2.38 4.3 3.62 8.9 3.62 13.7 0 6.85-2.8 11.8-4.95 15.44-1.74 3.04-2.73 4.78-2.73 7.34 0 5.45 9.65 7.43 11.64 7.76 7 1.24 13.12 4.13 17.33 6.44 4.2-2.3 10.32-5.2 17.34-6.44zm-4.6-19.57c1.06 1 1.56 2.3 1.56 4.05 0 1.8-.66 3.22-1.98 4.37-1.24 1.07-3.06 1.57-5.3 1.57-1.72 0-3.46-.33-5.2-1.07v-2.23c2.07.66 3.8 1 5.2 1 1.4 0 2.57-.34 3.3-1 .76-.58 1.17-1.5 1.17-2.64 0-2.3-1.4-3.4-4.3-3.4-.9 0-1.8 0-2.64.1v-1.82l5.88-6.44h-8.26v-2.23h11.3v2.14l-5.7 6.1H1033.12c1.83 0 3.3.5 4.4 1.5zm-16.28-.5c1.16 1.08 1.74 2.56 1.74 4.38 0 1.83-.66 3.3-2 4.47-1.3 1.07-3.04 1.65-5.27 1.65-1.9 0-3.64-.33-5.3-1.07v-2.23c2.07.66 3.8 1 5.3 1 1.4 0 2.47-.34 3.3-1 .74-.66 1.07-1.57 1.07-2.73 0-1.33-.33-2.32-1.08-2.9-.67-.66-1.82-.9-3.47-.9-1.16 0-2.56.08-4.3.24v-1.8l.5-8.35h10.24v2.22h-7.85l-.4 5.7c1.06-.17 1.97-.25 2.8-.25 1.98 0 3.55.5 4.7 1.57z" stroke="#000" stroke-opacity="0" fill="#fff"/><use xlink:href="#b" transform="matrix(1,0,0,1,934.7731236856698,268.34019607847785) translate(18.049999999999997 14.4)"/><use xlink:href="#c" transform="matrix(1,0,0,1,934.7731236856698,268.34019607847785) translate(89 14.4)"/><use xlink:href="#d" transform="matrix(1,0,0,1,934.7731236856698,268.34019607847785) translate(141.95 14.4)"/><defs><linearGradient gradientUnits="userSpaceOnUse" id="a" x1="964.77" y1="259.34" x2="1084.77" y2="139.34"><stop offset="0%" stop-color="#4d27a8"/><stop offset="100%" stop-color="#a166ff"/></linearGradient><path d="M205 0l-28-72H64L36 0H1l101-248h38L239 0h-34zm-38-99l-47-123c-12 45-31 82-46 123h93" id="e"/><path d="M210-169c-67 3-38 105-44 169h-31v-121c0-29-5-50-35-48C34-165 62-65 56 0H25l-1-190h30c1 10-1 24 2 32 10-44 99-50 107 0 11-21 27-35 58-36 85-2 47 119 55 194h-31v-121c0-29-5-49-35-48" id="f"/><path d="M141-36C126-15 110 5 73 4 37 3 15-17 15-53c-1-64 63-63 125-63 3-35-9-54-41-54-24 1-41 7-42 31l-33-3c5-37 33-52 76-52 45 0 72 20 72 64v82c-1 20 7 32 28 27v20c-31 9-61-2-59-35zM48-53c0 20 12 33 32 33 41-3 63-29 60-74-43 2-92-5-92 41" id="g"/><path d="M9 0v-24l116-142H16v-24h144v24L44-24h123V0H9" id="h"/><path d="M100-194c62-1 85 37 85 99 1 63-27 99-86 99S16-35 15-95c0-66 28-99 85-99zM99-20c44 1 53-31 53-75 0-43-8-75-51-75s-53 32-53 75 10 74 51 75" id="i"/><path d="M117-194c89-4 53 116 60 194h-32v-121c0-31-8-49-39-48C34-167 62-67 57 0H25l-1-190h30c1 10-1 24 2 32 11-22 29-35 61-36" id="j"/><g id="b"><use transform="matrix(0.05,0,0,0.05,0,0)" xlink:href="#e"/><use transform="matrix(0.05,0,0,0.05,12,0)" xlink:href="#f"/><use transform="matrix(0.05,0,0,0.05,26.950000000000003,0)" xlink:href="#g"/><use transform="matrix(0.05,0,0,0.05,36.95,0)" xlink:href="#h"/><use transform="matrix(0.05,0,0,0.05,45.95,0)" xlink:href="#i"/><use transform="matrix(0.05,0,0,0.05,55.95,0)" xlink:href="#j"/></g><path d="M233-177c-1 41-23 64-60 70L243 0h-38l-65-103H63V0H30v-248c88 3 205-21 203 71zM63-129c60-2 137 13 137-47 0-61-80-42-137-45v92" id="k"/><path d="M84 4C-5 8 30-112 23-190h32v120c0 31 7 50 39 49 72-2 45-101 50-169h31l1 190h-30c-1-10 1-25-2-33-11 22-28 36-60 37" id="l"/><path d="M59-47c-2 24 18 29 38 22v24C64 9 27 4 27-40v-127H5v-23h24l9-43h21v43h35v23H59v120" id="m"/><path d="M100-194c63 0 86 42 84 106H49c0 40 14 67 53 68 26 1 43-12 49-29l28 8c-11 28-37 45-77 45C44 4 14-33 15-96c1-61 26-98 85-98zm52 81c6-60-76-77-97-28-3 7-6 17-6 28h103" id="n"/><g id="c"><use transform="matrix(0.05,0,0,0.05,0,0)" xlink:href="#k"/><use transform="matrix(0.05,0,0,0.05,12.950000000000001,0)" xlink:href="#i"/><use transform="matrix(0.05,0,0,0.05,22.950000000000003,0)" xlink:href="#l"/><use transform="matrix(0.05,0,0,0.05,32.95,0)" xlink:href="#m"/><use transform="matrix(0.05,0,0,0.05,37.95,0)" xlink:href="#n"/></g><path d="M54-142c48-35 137-8 131 61C196 18 31 33 14-55l32-4c7 23 22 37 52 37 35-1 51-22 54-58 4-55-73-65-99-34H22l8-134h141v27H59" id="o"/><path d="M126-127c33 6 58 20 58 59 0 88-139 92-164 29-3-8-5-16-6-25l32-3c6 27 21 44 54 44 32 0 52-15 52-46 0-38-36-46-79-43v-28c39 1 72-4 72-42 0-27-17-43-46-43-28 0-47 15-49 41l-32-3c6-42 35-63 81-64 48-1 79 21 79 65 0 36-21 52-52 59" id="p"/><g id="d"><use transform="matrix(0.05,0,0,0.05,0,0)" xlink:href="#o"/><use transform="matrix(0.05,0,0,0.05,10,0)" xlink:href="#p"/></g></defs></g></svg>