<svg xmlns="http://www.w3.org/2000/svg" xmlns:xlink="http://www.w3.org/1999/xlink" xmlns:lucid="lucid" width="136.59" height="149"><g transform="translate(1310.913983088773 -179.16102941185778)" lucid:page-tab-id="uv5EYE1UFW77"><path d="M-1500-500h5000v2000h-5000z" fill="#fff"/><path d="M-1301.72 179.16h120v120h-120v-120z" stroke="#fff" stroke-opacity="0" stroke-width="2" fill="#3b48cc"/><path d="M-1224.2 224.33c0-4.63-9.1-6.8-17.6-6.8-8.5 0-17.6 2.18-17.6 6.8 0 .26.03.43.07.7v28.85c-.07 4.83 9.06 6.87 17.6 6.87 8.58 0 17.6-2.12 17.6-6.74v-29.67zm-17.56-3.6c9.3 0 14.4 2.56 14.4 3.6 0 1.03-5.05 3.58-14.4 3.58-9.4 0-14.4-2.5-14.4-3.57 0-1.04 5.05-3.6 14.4-3.6zm14.4 33.28c0 1.04-5.05 3.55-14.4 3.55-9.35 0-14.4-2.5-14.4-3.54v-5.05c3.35 1.86 9.03 2.72 14.4 2.72 5.36 0 10.97-.86 14.4-2.67zm0-9.1c0 1.03-5.05 3.58-14.4 3.58-9.4 0-14.4-2.55-14.4-3.6h.04v-6.08c3.38 1.8 9.03 2.68 14.4 2.68 5.36 0 10.96-.87 14.4-2.64zm0-10.2c0 1.03-5.05 3.62-14.4 3.62-9.4 0-14.4-2.6-14.4-3.63h.04v-6.22c3.42 1.8 9 2.63 14.4 2.63s11.07-.85 14.4-2.7zM-1276.26 275.98h10.53v3.2h-14.4c-.88 0-1.6-.72-1.6-1.6v-14.4h3.2v10.5l12-11.98 2.25 2.26zM-1201.72 263.18v14.4c0 .9-.7 1.6-1.6 1.6h-14.4v-3.2h10.54l-11.82-11.85 2.26-2.25 11.82 11.8v-10.5zM-1201.72 200.78v14.4h-3.2v-10.56l-11.82 11.82-2.26-2.26 11.8-11.8h-10.52v-3.2h14.4c.9 0 1.6.7 1.6 1.6zM-1264.28 214.37l-2.24 2.23-12-12v10.55h-3.2v-14.4c0-.9.7-1.6 1.6-1.6h14.4v3.2h-10.54zM-1266.27 253.5c-9.78-3.5-15.37-8.9-15.37-14.74 0-5.83 5.6-11.2 15.38-14.73l1.08 3c-8.3 3-13.27 7.37-13.27 11.73s4.97 8.73 13.27 11.73zM-1218.07 253.85l-1.03-3.05c8.88-3 14.18-7.48 14.18-12.04 0-4.56-5.3-9.05-14.18-12.07l1.03-3.03c10.4 3.5 16.35 9.03 16.35 15.1 0 6.06-5.96 11.55-16.35 15.08z" stroke="#fff" stroke-opacity="0" stroke-width="2" fill="#fff"/><use xlink:href="#a" transform="matrix(1,0,0,1,-1331.7226250640815,308.1610294118578) translate(22.808641975308646 17.77777777777778)"/><use xlink:href="#b" transform="matrix(1,0,0,1,-1331.7226250640815,308.1610294118578) translate(110.40123456790124 17.77777777777778)"/><defs><path fill="#282c33" d="M205 0l-28-72H64L36 0H1l101-248h38L239 0h-34zm-38-99l-47-123c-12 45-31 82-46 123h93" id="c"/><path fill="#282c33" d="M210-169c-67 3-38 105-44 169h-31v-121c0-29-5-50-35-48C34-165 62-65 56 0H25l-1-190h30c1 10-1 24 2 32 10-44 99-50 107 0 11-21 27-35 58-36 85-2 47 119 55 194h-31v-121c0-29-5-49-35-48" id="d"/><path fill="#282c33" d="M141-36C126-15 110 5 73 4 37 3 15-17 15-53c-1-64 63-63 125-63 3-35-9-54-41-54-24 1-41 7-42 31l-33-3c5-37 33-52 76-52 45 0 72 20 72 64v82c-1 20 7 32 28 27v20c-31 9-61-2-59-35zM48-53c0 20 12 33 32 33 41-3 63-29 60-74-43 2-92-5-92 41" id="e"/><path fill="#282c33" d="M9 0v-24l116-142H16v-24h144v24L44-24h123V0H9" id="f"/><path fill="#282c33" d="M100-194c62-1 85 37 85 99 1 63-27 99-86 99S16-35 15-95c0-66 28-99 85-99zM99-20c44 1 53-31 53-75 0-43-8-75-51-75s-53 32-53 75 10 74 51 75" id="g"/><path fill="#282c33" d="M117-194c89-4 53 116 60 194h-32v-121c0-31-8-49-39-48C34-167 62-67 57 0H25l-1-190h30c1 10-1 24 2 32 11-22 29-35 61-36" id="h"/><g id="a"><use transform="matrix(0.06172839506172839,0,0,0.06172839506172839,0,0)" xlink:href="#c"/><use transform="matrix(0.06172839506172839,0,0,0.06172839506172839,14.814814814814813,0)" xlink:href="#d"/><use transform="matrix(0.06172839506172839,0,0,0.06172839506172839,33.2716049382716,0)" xlink:href="#e"/><use transform="matrix(0.06172839506172839,0,0,0.06172839506172839,45.61728395061728,0)" xlink:href="#f"/><use transform="matrix(0.06172839506172839,0,0,0.06172839506172839,56.72839506172839,0)" xlink:href="#g"/><use transform="matrix(0.06172839506172839,0,0,0.06172839506172839,69.07407407407408,0)" xlink:href="#h"/></g><path fill="#282c33" d="M233-177c-1 41-23 64-60 70L243 0h-38l-65-103H63V0H30v-248c88 3 205-21 203 71zM63-129c60-2 137 13 137-47 0-61-80-42-137-45v92" id="i"/><path fill="#282c33" d="M30-248c118-7 216 8 213 122C240-48 200 0 122 0H30v-248zM63-27c89 8 146-16 146-99s-60-101-146-95v194" id="j"/><path fill="#282c33" d="M185-189c-5-48-123-54-124 2 14 75 158 14 163 119 3 78-121 87-175 55-17-10-28-26-33-46l33-7c5 56 141 63 141-1 0-78-155-14-162-118-5-82 145-84 179-34 5 7 8 16 11 25" id="k"/><g id="b"><use transform="matrix(0.06172839506172839,0,0,0.06172839506172839,0,0)" xlink:href="#i"/><use transform="matrix(0.06172839506172839,0,0,0.06172839506172839,15.987654320987653,0)" xlink:href="#j"/><use transform="matrix(0.06172839506172839,0,0,0.06172839506172839,31.975308641975307,0)" xlink:href="#k"/></g></defs></g></svg>