<svg xmlns="http://www.w3.org/2000/svg" xmlns:xlink="http://www.w3.org/1999/xlink" xmlns:lucid="lucid" width="136.59" height="149"><g transform="translate(1301.1033713736435 -139.34019607847785)" lucid:page-tab-id="uv5EYE1UFW77"><path d="M-1500-500h5000v2000h-5000z" fill="#fff"/><path d="M-1292.5 139.34h120v120h-120v-120z" stroke="#fff" stroke-opacity="0" fill="#693cc5"/><path d="M-1234.18 213.77h-22.4c-8.82 0-15.47-5.83-15.95-13.92v-1.1c-.24-6.94 4.17-13 10.9-14.83v-1.26c.23-12.1 10.16-21.65 22.25-21.44 5.92.1 11.05 2.3 15.2 6.62 2.17 2.16 3.77 4.36 5.05 7.2 1.85-1.47 3.85-2.2 6.17-2.2 4.64 0 9.6 3.3 10.4 10.72 4.17.78 7.37 2.73 10.1 5.93l-2.5 2c-2.55-2.9-5.6-4.53-9.27-5.1-.8-.1-1.37-.7-1.37-1.48-.4-6.15-4-8.88-7.36-8.88-2.24 0-4.16 1-5.45 2.8-.4.46-.97.72-1.53.62-.64-.1-1.04-.48-1.28-1.06-1.13-3.25-2.73-5.83-5.2-8.25-3.53-3.62-7.78-5.5-12.9-5.67-10.25-.26-18.82 7.88-19.14 18.18 0 .8.08 1.47.16 2.26.08.8-.4 1.53-1.2 1.74-3.6.9-9.76 3.67-9.76 12.08v.9c.4 6.4 5.68 10.93 12.8 10.93h22.42z" stroke="#fff" stroke-opacity="0" fill="#fff"/><path d="M-1211.8 237.36c-18.96 0-19.2-21.32-19.2-21.52v-19.5c0-.7.4-1.28 1.04-1.48l17.6-6.53c.37-.15.76-.15 1.14 0l17.6 6.53c.64.2 1.03.8 1.03 1.48v20.68c0 .2-.23 20.34-19.2 20.34zm-16-39.9v18.38c0 .74.22 18.32 16 18.32 15.8 0 16.02-16.45 16.02-17.14v-19.55l-16-5.95z" stroke="#fff" stroke-opacity="0" fill="#fff"/><path d="M-1211.8 231.37c-10.17 0-12.68-12.9-12.8-13.44v-16.87c0-.7.4-1.23 1.02-1.5l11.2-4.42c.38-.15.8-.15 1.17 0l11.2 4.43c.63.26 1 .8 1 1.5v16.86c-.12.54-2.63 13.44-12.8 13.44zm-9.6-13.92c.25 1.24 2.56 10.72 9.6 10.72 7.07 0 9.35-9.48 9.6-10.72v-15.3l-9.6-3.78-9.6 3.78z" stroke="#fff" stroke-opacity="0" fill="#fff"/><use xlink:href="#a" transform="matrix(1,0,0,1,-1322.4984331020387,268.34019607847785) translate(23.395061728395063 17.77777777777778)"/><use xlink:href="#b" transform="matrix(1,0,0,1,-1322.4984331020387,268.34019607847785) translate(110.98765432098766 17.77777777777778)"/><defs><path fill="#282c33" d="M205 0l-28-72H64L36 0H1l101-248h38L239 0h-34zm-38-99l-47-123c-12 45-31 82-46 123h93" id="c"/><path fill="#282c33" d="M210-169c-67 3-38 105-44 169h-31v-121c0-29-5-50-35-48C34-165 62-65 56 0H25l-1-190h30c1 10-1 24 2 32 10-44 99-50 107 0 11-21 27-35 58-36 85-2 47 119 55 194h-31v-121c0-29-5-49-35-48" id="d"/><path fill="#282c33" d="M141-36C126-15 110 5 73 4 37 3 15-17 15-53c-1-64 63-63 125-63 3-35-9-54-41-54-24 1-41 7-42 31l-33-3c5-37 33-52 76-52 45 0 72 20 72 64v82c-1 20 7 32 28 27v20c-31 9-61-2-59-35zM48-53c0 20 12 33 32 33 41-3 63-29 60-74-43 2-92-5-92 41" id="e"/><path fill="#282c33" d="M9 0v-24l116-142H16v-24h144v24L44-24h123V0H9" id="f"/><path fill="#282c33" d="M100-194c62-1 85 37 85 99 1 63-27 99-86 99S16-35 15-95c0-66 28-99 85-99zM99-20c44 1 53-31 53-75 0-43-8-75-51-75s-53 32-53 75 10 74 51 75" id="g"/><path fill="#282c33" d="M117-194c89-4 53 116 60 194h-32v-121c0-31-8-49-39-48C34-167 62-67 57 0H25l-1-190h30c1 10-1 24 2 32 11-22 29-35 61-36" id="h"/><g id="a"><use transform="matrix(0.06172839506172839,0,0,0.06172839506172839,0,0)" xlink:href="#c"/><use transform="matrix(0.06172839506172839,0,0,0.06172839506172839,14.814814814814813,0)" xlink:href="#d"/><use transform="matrix(0.06172839506172839,0,0,0.06172839506172839,33.2716049382716,0)" xlink:href="#e"/><use transform="matrix(0.06172839506172839,0,0,0.06172839506172839,45.61728395061728,0)" xlink:href="#f"/><use transform="matrix(0.06172839506172839,0,0,0.06172839506172839,56.72839506172839,0)" xlink:href="#g"/><use transform="matrix(0.06172839506172839,0,0,0.06172839506172839,69.07407407407408,0)" xlink:href="#h"/></g><path fill="#282c33" d="M137 0h-34L2-248h35l83 218 83-218h36" id="i"/><path fill="#282c33" d="M30-248c87 1 191-15 191 75 0 78-77 80-158 76V0H30v-248zm33 125c57 0 124 11 124-50 0-59-68-47-124-48v98" id="j"/><path fill="#282c33" d="M212-179c-10-28-35-45-73-45-59 0-87 40-87 99 0 60 29 101 89 101 43 0 62-24 78-52l27 14C228-24 195 4 139 4 59 4 22-46 18-125c-6-104 99-153 187-111 19 9 31 26 39 46" id="k"/><g id="b"><use transform="matrix(0.06172839506172839,0,0,0.06172839506172839,0,0)" xlink:href="#i"/><use transform="matrix(0.06172839506172839,0,0,0.06172839506172839,14.814814814814813,0)" xlink:href="#j"/><use transform="matrix(0.06172839506172839,0,0,0.06172839506172839,29.629629629629626,0)" xlink:href="#k"/></g></defs></g></svg>