<svg id="chip" width="100" height="100" viewBox="0 0 100 100" fill="none" xmlns="http://www.w3.org/2000/svg">
<path d="M65 35H35V65H65V35Z" fill="black"/>
<path fill-rule="evenodd" clip-rule="evenodd" d="M35 10C35 8.67392 35.5268 7.40215 36.4645 6.46447C37.4021 5.52678 38.6739 5 40 5C41.3261 5 42.5979 5.52678 43.5355 6.46447C44.4732 7.40215 45 8.67392 45 10V15H55V10C55 8.67392 55.5268 7.40215 56.4645 6.46447C57.4021 5.52678 58.6739 5 60 5C61.3261 5 62.5979 5.52678 63.5355 6.46447C64.4732 7.40215 65 8.67392 65 10V15H75C77.6522 15 80.1957 16.0536 82.0711 17.9289C83.9464 19.8043 85 22.3478 85 25V35H90C91.3261 35 92.5979 35.5268 93.5355 36.4645C94.4732 37.4021 95 38.6739 95 40C95 41.3261 94.4732 42.5979 93.5355 43.5355C92.5979 44.4732 91.3261 45 90 45H85V55H90C91.3261 55 92.5979 55.5268 93.5355 56.4645C94.4732 57.4021 95 58.6739 95 60C95 61.3261 94.4732 62.5979 93.5355 63.5355C92.5979 64.4732 91.3261 65 90 65H85V75C85 77.6522 83.9464 80.1957 82.0711 82.0711C80.1957 83.9464 77.6522 85 75 85H65V90C65 91.3261 64.4732 92.5979 63.5355 93.5355C62.5979 94.4732 61.3261 95 60 95C58.6739 95 57.4021 94.4732 56.4645 93.5355C55.5268 92.5979 55 91.3261 55 90V85H45V90C45 91.3261 44.4732 92.5979 43.5355 93.5355C42.5979 94.4732 41.3261 95 40 95C38.6739 95 37.4021 94.4732 36.4645 93.5355C35.5268 92.5979 35 91.3261 35 90V85H25C22.3478 85 19.8043 83.9464 17.9289 82.0711C16.0536 80.1957 15 77.6522 15 75V65H10C8.67392 65 7.40215 64.4732 6.46447 63.5355C5.52678 62.5979 5 61.3261 5 60C5 58.6739 5.52678 57.4021 6.46447 56.4645C7.40215 55.5268 8.67392 55 10 55H15V45H10C8.67392 45 7.40215 44.4732 6.46447 43.5355C5.52678 42.5979 5 41.3261 5 40C5 38.6739 5.52678 37.4021 6.46447 36.4645C7.40215 35.5268 8.67392 35 10 35H15V25C15 22.3478 16.0536 19.8043 17.9289 17.9289C19.8043 16.0536 22.3478 15 25 15H35V10ZM25 25H75V75H25V25Z" fill="black"/>
</svg>
