<svg width="100" height="100" viewBox="0 0 100 100" fill="none" xmlns="http://www.w3.org/2000/svg">
<path fill-rule="evenodd" clip-rule="evenodd" d="M61.5799 15.255C62.2031 15.4623 62.7794 15.7905 63.2757 16.2206C63.7721 16.6507 64.1789 17.1744 64.4728 17.7618C64.7667 18.3491 64.942 18.9887 64.9887 19.6438C65.0354 20.2989 64.9526 20.9569 64.7449 21.58L44.7449 81.58C44.3259 82.8384 43.4241 83.8789 42.2379 84.4724C41.0517 85.066 39.6784 85.164 38.4199 84.745C37.1615 84.3259 36.121 83.4241 35.5275 82.238C34.9339 81.0518 34.8359 79.6784 35.2549 78.42L55.2549 18.42C55.4623 17.7968 55.7904 17.2205 56.2205 16.7242C56.6506 16.2278 57.1743 15.821 57.7617 15.5271C58.3491 15.2332 58.9886 15.0579 59.6437 15.0112C60.2989 14.9645 60.9568 15.0473 61.5799 15.255ZM28.5349 31.465C29.4723 32.4026 29.9988 33.6742 29.9988 35C29.9988 36.3258 29.4723 37.5973 28.5349 38.535L17.0699 50L28.5349 61.465C29.0125 61.9262 29.3934 62.4779 29.6554 63.088C29.9175 63.698 30.0554 64.3541 30.0612 65.018C30.0669 65.6819 29.9404 66.3403 29.689 66.9548C29.4376 67.5692 29.0663 68.1275 28.5969 68.597C28.1274 69.0664 27.5692 69.4377 26.9547 69.6891C26.3402 69.9405 25.6818 70.067 25.0179 70.0612C24.354 70.0555 23.6979 69.9175 23.0879 69.6555C22.4779 69.3934 21.9261 69.0125 21.4649 68.535L6.46491 53.535C5.52755 52.5973 5.00098 51.3258 5.00098 50C5.00098 48.6742 5.52755 47.4026 6.46491 46.465L21.4649 31.465C22.4025 30.5276 23.6741 30.001 24.9999 30.001C26.3257 30.001 27.5973 30.5276 28.5349 31.465ZM71.4649 31.465C72.4025 30.5276 73.6741 30.001 74.9999 30.001C76.3257 30.001 77.5973 30.5276 78.5349 31.465L93.5349 46.465C94.4723 47.4026 94.9988 48.6742 94.9988 50C94.9988 51.3258 94.4723 52.5973 93.5349 53.535L78.5349 68.535C78.0737 69.0125 77.5219 69.3934 76.9119 69.6555C76.3019 69.9175 75.6458 70.0555 74.9819 70.0612C74.318 70.067 73.6596 69.9405 73.0451 69.6891C72.4307 69.4377 71.8724 69.0664 71.4029 68.597C70.9335 68.1275 70.5622 67.5692 70.3108 66.9548C70.0594 66.3403 69.9329 65.6819 69.9387 65.018C69.9444 64.3541 70.0824 63.698 70.3444 63.088C70.6064 62.4779 70.9874 61.9262 71.4649 61.465L82.9299 50L71.4649 38.535C70.5276 37.5973 70.001 36.3258 70.001 35C70.001 33.6742 70.5276 32.4026 71.4649 31.465Z" fill="black"/>
</svg>
