<svg width="100" height="100" viewBox="0 0 100 100" fill="none" xmlns="http://www.w3.org/2000/svg">
<path fill-rule="evenodd" clip-rule="evenodd" d="M47.52 5.65985C48.2753 5.2284 49.1302 5.00146 50 5.00146C50.8699 5.00146 51.7247 5.2284 52.48 5.65985L61.23 10.6599C61.8164 10.9768 62.3335 11.4078 62.751 11.9274C63.1684 12.4471 63.4777 13.045 63.6607 13.686C63.8437 14.3269 63.8966 14.998 63.8165 15.6597C63.7363 16.3215 63.5247 16.9605 63.194 17.5393C62.8633 18.118 62.4202 18.6248 61.8908 19.0298C61.3613 19.4348 60.7563 19.7298 60.1112 19.8976C59.4661 20.0654 58.7939 20.1024 58.1343 20.0067C57.4746 19.9109 56.8408 19.6842 56.27 19.3399L50 15.7599L43.73 19.3399C43.1593 19.6842 42.5254 19.9109 41.8658 20.0067C41.2061 20.1024 40.534 20.0654 39.8889 19.8976C39.2438 19.7298 38.6387 19.4348 38.1093 19.0298C37.5799 18.6248 37.1368 18.118 36.8061 17.5393C36.4754 16.9605 36.2637 16.3215 36.1836 15.6597C36.1034 14.998 36.1564 14.3269 36.3394 13.686C36.5224 13.045 36.8317 12.4471 37.2491 11.9274C37.6665 11.4078 38.1836 10.9768 38.77 10.6599L47.52 5.65985ZM28.09 22.5199C28.7474 23.671 28.9207 25.036 28.5719 26.3149C28.2231 27.5938 27.3808 28.6819 26.23 29.3399L25.08 29.9999L26.23 30.6599C26.8164 30.9768 27.3335 31.4077 27.751 31.9274C28.1684 32.4471 28.4777 33.045 28.6607 33.686C28.8437 34.3269 28.8966 34.998 28.8165 35.6597C28.7363 36.3215 28.5247 36.9605 28.194 37.5393C27.8633 38.118 27.4202 38.6248 26.8908 39.0298C26.3613 39.4348 25.7563 39.7298 25.1112 39.8976C24.4661 40.0654 23.7939 40.1025 23.1343 40.0067C22.4746 39.9109 21.8408 39.6842 21.27 39.3399L20 38.6149V39.9999C20 41.3259 19.4732 42.5977 18.5356 43.5354C17.5979 44.4731 16.3261 44.9999 15 44.9999C13.6739 44.9999 12.4022 44.4731 11.4645 43.5354C10.5268 42.5977 10 41.3259 10 39.9999V29.9999C9.99723 29.1017 10.2374 28.2194 10.6951 27.4466C11.1528 26.6738 11.811 26.0391 12.6 25.6099L21.27 20.6599C22.4211 20.0025 23.7862 19.8292 25.0651 20.1779C26.344 20.5267 27.432 21.3691 28.09 22.5199ZM71.91 22.5199C72.568 21.3691 73.6561 20.5267 74.935 20.1779C76.2138 19.8292 77.5789 20.0025 78.73 20.6599L87.395 25.6099C88.1828 26.041 88.8403 26.6759 89.2986 27.4482C89.7569 28.2205 89.9991 29.1018 90 29.9999V39.9999C90 41.3259 89.4732 42.5977 88.5356 43.5354C87.5979 44.4731 86.3261 44.9999 85 44.9999C83.6739 44.9999 82.4022 44.4731 81.4645 43.5354C80.5268 42.5977 80 41.3259 80 39.9999V38.6149L78.73 39.3399C78.1593 39.6842 77.5254 39.9109 76.8658 40.0067C76.2061 40.1025 75.534 40.0654 74.8889 39.8976C74.2438 39.7298 73.6387 39.4348 73.1093 39.0298C72.5799 38.6248 72.1368 38.118 71.8061 37.5393C71.4754 36.9605 71.2637 36.3215 71.1836 35.6597C71.1034 34.998 71.1564 34.3269 71.3394 33.686C71.5224 33.045 71.8317 32.4471 72.2491 31.9274C72.6665 31.4077 73.1836 30.9768 73.77 30.6599L74.92 29.9999L73.77 29.3399C72.6193 28.6819 71.7769 27.5938 71.4281 26.3149C71.0793 25.036 71.2527 23.671 71.91 22.5199ZM36.91 42.5199C37.568 41.3691 38.6561 40.5267 39.935 40.1779C41.2138 39.8292 42.5789 40.0025 43.73 40.6599L50 44.2399L56.27 40.6599C56.8408 40.3155 57.4746 40.0888 58.1343 39.993C58.7939 39.8973 59.4661 39.9343 60.1112 40.1021C60.7563 40.2699 61.3613 40.5649 61.8908 40.9699C62.4202 41.3749 62.8633 41.8817 63.194 42.4605C63.5247 43.0392 63.7363 43.6782 63.8165 44.34C63.8966 45.0017 63.8437 45.6728 63.6607 46.3137C63.4777 46.9547 63.1684 47.5526 62.751 48.0723C62.3335 48.592 61.8164 49.0229 61.23 49.3399L55 52.8999V59.9999C55 61.3259 54.4732 62.5977 53.5356 63.5354C52.5979 64.4731 51.3261 64.9999 50 64.9999C48.6739 64.9999 47.4022 64.4731 46.4645 63.5354C45.5268 62.5977 45 61.3259 45 59.9999V52.8999L38.77 49.3399C37.6193 48.6819 36.7769 47.5938 36.4281 46.3149C36.0793 45.036 36.2527 43.671 36.91 42.5199ZM15 54.9999C16.3261 54.9999 17.5979 55.5266 18.5356 56.4643C19.4732 57.402 20 58.6738 20 59.9999V67.0999L26.23 70.6599C26.8164 70.9768 27.3335 71.4078 27.751 71.9274C28.1684 72.4471 28.4777 73.045 28.6607 73.686C28.8437 74.3269 28.8966 74.998 28.8165 75.6598C28.7363 76.3215 28.5247 76.9605 28.194 77.5392C27.8633 78.118 27.4202 78.6248 26.8908 79.0298C26.3613 79.4348 25.7563 79.7298 25.1112 79.8976C24.4661 80.0654 23.7939 80.1024 23.1343 80.0067C22.4746 79.9109 21.8408 79.6842 21.27 79.3399L12.52 74.3399C11.7548 73.9027 11.1186 73.2711 10.6761 72.5089C10.2335 71.7468 10.0003 70.8812 10 69.9999V59.9999C10 58.6738 10.5268 57.402 11.4645 56.4643C12.4022 55.5266 13.6739 54.9999 15 54.9999ZM85 54.9999C86.3261 54.9999 87.5979 55.5266 88.5356 56.4643C89.4732 57.402 90 58.6738 90 59.9999V69.9999C89.9997 70.8812 89.7665 71.7468 89.324 72.5089C88.8814 73.2711 88.2453 73.9027 87.48 74.3399L78.73 79.3399C78.1593 79.6842 77.5254 79.9109 76.8658 80.0067C76.2061 80.1024 75.534 80.0654 74.8889 79.8976C74.2438 79.7298 73.6387 79.4348 73.1093 79.0298C72.5799 78.6248 72.1368 78.118 71.8061 77.5392C71.4754 76.9605 71.2637 76.3215 71.1836 75.6598C71.1034 74.998 71.1564 74.3269 71.3394 73.686C71.5224 73.045 71.8317 72.4471 72.2491 71.9274C72.6665 71.4078 73.1836 70.9768 73.77 70.6599L80 67.0999V59.9999C80 58.6738 80.5268 57.402 81.4645 56.4643C82.4022 55.5266 83.6739 54.9999 85 54.9999ZM36.91 82.5199C37.568 81.3691 38.6561 80.5267 39.935 80.1779C41.2138 79.8292 42.5789 80.0025 43.73 80.6599L45 81.3849V79.9999C45 78.6738 45.5268 77.402 46.4645 76.4643C47.4022 75.5266 48.6739 74.9999 50 74.9999C51.3261 74.9999 52.5979 75.5266 53.5356 76.4643C54.4732 77.402 55 78.6738 55 79.9999V81.3849L56.27 80.6599C56.8408 80.3155 57.4746 80.0888 58.1343 79.993C58.7939 79.8973 59.4661 79.9343 60.1112 80.1021C60.7563 80.2699 61.3613 80.5649 61.8908 80.9699C62.4202 81.3749 62.8633 81.8817 63.194 82.4605C63.5247 83.0392 63.7363 83.6782 63.8165 84.34C63.8966 85.0017 63.8437 85.6728 63.6607 86.3137C63.4777 86.9547 63.1684 87.5526 62.751 88.0723C62.3335 88.5919 61.8164 89.0229 61.23 89.3399L52.555 94.2999C51.7829 94.762 50.8999 95.0061 50 95.0061C49.1002 95.0061 48.2172 94.762 47.445 94.2999L38.77 89.3399C37.6193 88.6819 36.7769 87.5938 36.4281 86.3149C36.0793 85.036 36.2527 83.671 36.91 82.5199Z" fill="black"/>
</svg>
