<svg width="100" height="100" viewBox="0 0 100 100" fill="none" xmlns="http://www.w3.org/2000/svg">
<path d="M55 84.9998C55.0005 85.8517 55.2186 86.6894 55.6337 87.4334C56.0488 88.1774 56.6472 88.803 57.372 89.2507C58.0968 89.6985 58.9239 89.9537 59.775 89.992C60.6261 90.0304 61.4729 89.8506 62.235 89.4698L82.235 79.4698C83.0654 79.0548 83.7639 78.4169 84.2522 77.6274C84.7406 76.8379 84.9995 75.9281 85 74.9998V46.1798C84.9995 45.3278 84.7814 44.4901 84.3663 43.7461C83.9512 43.0022 83.3528 42.3766 82.628 41.9288C81.9032 41.481 81.0761 41.2258 80.225 41.1875C79.3739 41.1492 78.5271 41.3289 77.765 41.7098L57.765 51.7098C56.9346 52.1247 56.2361 52.7627 55.7478 53.5521C55.2594 54.3416 55.0005 55.2515 55 56.1798V84.9998ZM76.055 31.3798C76.8844 30.9641 77.5818 30.3258 78.0692 29.5364C78.5565 28.747 78.8147 27.8375 78.8147 26.9098C78.8147 25.982 78.5565 25.0726 78.0692 24.2831C77.5818 23.4937 76.8844 22.8555 76.055 22.4398L52.235 10.5298C51.541 10.183 50.7758 10.0024 50 10.0024C49.2242 10.0024 48.459 10.183 47.765 10.5298L23.945 22.4398C23.1156 22.8555 22.4182 23.4937 21.9308 24.2831C21.4435 25.0726 21.1853 25.982 21.1853 26.9098C21.1853 27.8375 21.4435 28.747 21.9308 29.5364C22.4182 30.3258 23.1156 30.9641 23.945 31.3798L47.765 43.2898C48.459 43.6366 49.2242 43.8171 50 43.8171C50.7758 43.8171 51.541 43.6366 52.235 43.2898L76.055 31.3798ZM22.235 41.7098C21.4729 41.3289 20.6261 41.1492 19.775 41.1875C18.9239 41.2258 18.0968 41.481 17.372 41.9288C16.6472 42.3766 16.0488 43.0022 15.6337 43.7461C15.2186 44.4901 15.0005 45.3278 15 46.1798V74.9998C15.0005 75.9281 15.2594 76.8379 15.7478 77.6274C16.2361 78.4169 16.9346 79.0548 17.765 79.4698L37.765 89.4698C38.5271 89.8506 39.3739 90.0304 40.225 89.992C41.0761 89.9537 41.9032 89.6985 42.628 89.2507C43.3528 88.803 43.9512 88.1774 44.3663 87.4334C44.7814 86.6894 44.9995 85.8517 45 84.9998V56.1798C44.9995 55.2515 44.7406 54.3416 44.2522 53.5521C43.7639 52.7627 43.0654 52.1247 42.235 51.7098L22.235 41.7098Z" fill="black"/>
</svg>
