<svg width="100" height="100" viewBox="0 0 100 100" fill="none" xmlns="http://www.w3.org/2000/svg">
<path d="M15 60V75C15 83.285 30.67 90 50 90C69.33 90 85 83.285 85 75V60C85 68.285 69.33 75 50 75C30.67 75 15 68.285 15 60Z" fill="black"/>
<path d="M15 35V50C15 58.285 30.67 65 50 65C69.33 65 85 58.285 85 50V35C85 43.285 69.33 50 50 50C30.67 50 15 43.285 15 35Z" fill="black"/>
<path d="M85 25C85 33.285 69.33 40 50 40C30.67 40 15 33.285 15 25C15 16.715 30.67 10 50 10C69.33 10 85 16.715 85 25Z" fill="black"/>
</svg>
