<svg width="100" height="100" viewBox="0 0 100 100" fill="none" xmlns="http://www.w3.org/2000/svg">
<path fill-rule="evenodd" clip-rule="evenodd" d="M15 25C15 22.3478 16.0536 19.8043 17.9289 17.9289C19.8043 16.0536 22.3478 15 25 15H75C77.6522 15 80.1957 16.0536 82.0711 17.9289C83.9464 19.8043 85 22.3478 85 25V65C85 67.6522 83.9464 70.1957 82.0711 72.0711C80.1957 73.9464 77.6522 75 75 75H63.9L64.515 77.445L68.535 81.465C69.234 82.1643 69.7101 83.0551 69.9029 84.0248C70.0958 84.9946 69.9967 85.9998 69.6184 86.9133C69.24 87.8268 68.5993 88.6076 67.7773 89.157C66.9552 89.7064 65.9888 89.9998 65 90H35C34.0112 89.9998 33.0448 89.7064 32.2227 89.157C31.4007 88.6076 30.76 87.8268 30.3816 86.9133C30.0033 85.9998 29.9042 84.9946 30.0971 84.0248C30.2899 83.0551 30.766 82.1643 31.465 81.465L35.485 77.445L36.1 75H25C22.3478 75 19.8043 73.9464 17.9289 72.0711C16.0536 70.1957 15 67.6522 15 65V25ZM43.855 60H25V25H75V60H43.855Z" fill="black"/>
</svg>
