<svg id="globe-alt" width="90" height="90" viewBox="0 0 90 90" fill="none" xmlns="http://www.w3.org/2000/svg">
<path d="M78.75 45C78.75 53.9511 75.1942 62.5355 68.8649 68.8649C62.5355 75.1942 53.9511 78.75 45 78.75M78.75 45C78.75 36.0489 75.1942 27.4645 68.8649 21.1351C62.5355 14.8058 53.9511 11.25 45 11.25M78.75 45H11.25M45 78.75C36.0489 78.75 27.4645 75.1942 21.1351 68.8649C14.8058 62.5355 11.25 53.9511 11.25 45M45 78.75C51.2137 78.75 56.25 63.6375 56.25 45C56.25 26.3625 51.2137 11.25 45 11.25M45 78.75C38.7863 78.75 33.75 63.6375 33.75 45C33.75 26.3625 38.7863 11.25 45 11.25M45 11.25C36.0489 11.25 27.4645 14.8058 21.1351 21.1351C14.8058 27.4645 11.25 36.0489 11.25 45" stroke="black" stroke-width="2" stroke-linecap="round" stroke-linejoin="round"/>
</svg>
