<svg id="server" width="100" height="100" viewBox="0 0 100 100" fill="none" xmlns="http://www.w3.org/2000/svg">
<path fill-rule="evenodd" clip-rule="evenodd" d="M10 25C10 22.3478 11.0536 19.8043 12.9289 17.9289C14.8043 16.0536 17.3478 15 20 15H80C82.6522 15 85.1957 16.0536 87.0711 17.9289C88.9464 19.8043 90 22.3478 90 25V35C90 37.6522 88.9464 40.1957 87.0711 42.0711C85.1957 43.9464 82.6522 45 80 45H20C17.3478 45 14.8043 43.9464 12.9289 42.0711C11.0536 40.1957 10 37.6522 10 35V25ZM80 30C80 31.3261 79.4732 32.5979 78.5355 33.5355C77.5979 34.4732 76.3261 35 75 35C73.6739 35 72.4021 34.4732 71.4645 33.5355C70.5268 32.5979 70 31.3261 70 30C70 28.6739 70.5268 27.4021 71.4645 26.4645C72.4021 25.5268 73.6739 25 75 25C76.3261 25 77.5979 25.5268 78.5355 26.4645C79.4732 27.4021 80 28.6739 80 30ZM10 65C10 62.3478 11.0536 59.8043 12.9289 57.9289C14.8043 56.0536 17.3478 55 20 55H80C82.6522 55 85.1957 56.0536 87.0711 57.9289C88.9464 59.8043 90 62.3478 90 65V75C90 77.6522 88.9464 80.1957 87.0711 82.0711C85.1957 83.9464 82.6522 85 80 85H20C17.3478 85 14.8043 83.9464 12.9289 82.0711C11.0536 80.1957 10 77.6522 10 75V65ZM80 70C80 71.3261 79.4732 72.5979 78.5355 73.5355C77.5979 74.4732 76.3261 75 75 75C73.6739 75 72.4021 74.4732 71.4645 73.5355C70.5268 72.5979 70 71.3261 70 70C70 68.6739 70.5268 67.4021 71.4645 66.4645C72.4021 65.5268 73.6739 65 75 65C76.3261 65 77.5979 65.5268 78.5355 66.4645C79.4732 67.4021 80 68.6739 80 70Z" fill="black"/>
</svg>
