<svg width="100" height="100" viewBox="0 0 100 100" fill="none" xmlns="http://www.w3.org/2000/svg">
<path fill-rule="evenodd" clip-rule="evenodd" d="M10.83 24.9952C25.3057 24.8152 39.2241 19.3875 50 9.72021C60.7752 19.3893 74.6937 24.8188 89.17 25.0002C89.72 28.2502 90 31.6002 90 35.0052C90 61.1302 73.3 83.3552 50 91.5902C26.7 83.3502 10 61.1252 10 35.0002C10 31.5902 10.285 28.2502 10.83 24.9952ZM68.535 43.5352C69.4458 42.5922 69.9498 41.3292 69.9384 40.0182C69.927 38.7072 69.4011 37.4532 68.4741 36.5261C67.5471 35.5991 66.293 35.0732 64.982 35.0618C63.671 35.0505 62.408 35.5544 61.465 36.4652L45 52.9302L38.535 46.4652C37.592 45.5544 36.329 45.0505 35.018 45.0618C33.707 45.0732 32.4529 45.5991 31.5259 46.5261C30.5989 47.4532 30.073 48.7072 30.0616 50.0182C30.0502 51.3292 30.5542 52.5922 31.465 53.5352L41.465 63.5352C42.4026 64.4726 43.6742 64.9991 45 64.9991C46.3258 64.9991 47.5974 64.4726 48.535 63.5352L68.535 43.5352Z" fill="black"/>
</svg>
