<svg id="terminal" width="100" height="100" viewBox="0 0 100 100" fill="none" xmlns="http://www.w3.org/2000/svg">
<path fill-rule="evenodd" clip-rule="evenodd" d="M10 25C10 22.3478 11.0536 19.8043 12.9289 17.9289C14.8043 16.0536 17.3478 15 20 15H80C82.6522 15 85.1957 16.0536 87.0711 17.9289C88.9464 19.8043 90 22.3478 90 25V75C90 77.6522 88.9464 80.1957 87.0711 82.0711C85.1957 83.9464 82.6522 85 80 85H20C17.3478 85 14.8043 83.9464 12.9289 82.0711C11.0536 80.1957 10 77.6522 10 75V25ZM26.465 31.465C27.4026 30.5276 28.6742 30.0011 30 30.0011C31.3258 30.0011 32.5974 30.5276 33.535 31.465L48.535 46.465C49.4724 47.4026 49.9989 48.6742 49.9989 50C49.9989 51.3258 49.4724 52.5974 48.535 53.535L33.535 68.535C32.592 69.4458 31.329 69.9498 30.018 69.9384C28.707 69.927 27.4529 69.4011 26.5259 68.4741C25.5989 67.5471 25.073 66.293 25.0616 64.982C25.0502 63.671 25.5542 62.408 26.465 61.465L37.93 50L26.465 38.535C25.5276 37.5974 25.0011 36.3258 25.0011 35C25.0011 33.6742 25.5276 32.4026 26.465 31.465ZM55 60C53.6739 60 52.4021 60.5268 51.4645 61.4645C50.5268 62.4021 50 63.6739 50 65C50 66.3261 50.5268 67.5979 51.4645 68.5355C52.4021 69.4732 53.6739 70 55 70H70C71.3261 70 72.5979 69.4732 73.5355 68.5355C74.4732 67.5979 75 66.3261 75 65C75 63.6739 74.4732 62.4021 73.5355 61.4645C72.5979 60.5268 71.3261 60 70 60H55Z" fill="black"/>
</svg>
