<svg width="80" height="80" viewBox="0 0 80 80" fill="none" xmlns="http://www.w3.org/2000/svg">
<path d="M43.5351 1.46491C42.5974 0.527553 41.3259 0.000976562 40.0001 0.000976562C38.6743 0.000976562 37.4027 0.527553 36.4651 1.46491L1.46508 36.4649C0.554292 37.4079 0.0503204 38.6709 0.0617125 39.9819C0.0731045 41.2929 0.598949 42.547 1.52599 43.474C2.45303 44.401 3.70709 44.9269 5.01808 44.9383C6.32906 44.9497 7.59207 44.4457 8.53508 43.5349L10.0001 42.0699V74.9999C10.0001 76.326 10.5269 77.5978 11.4646 78.5354C12.4022 79.4731 13.674 79.9999 15.0001 79.9999H25.0001C26.3262 79.9999 27.5979 79.4731 28.5356 78.5354C29.4733 77.5978 30.0001 76.326 30.0001 74.9999V64.9999C30.0001 63.6738 30.5269 62.4021 31.4646 61.4644C32.4022 60.5267 33.674 59.9999 35.0001 59.9999H45.0001C46.3262 59.9999 47.5979 60.5267 48.5356 61.4644C49.4733 62.4021 50.0001 63.6738 50.0001 64.9999V74.9999C50.0001 76.326 50.5269 77.5978 51.4646 78.5354C52.4022 79.4731 53.674 79.9999 55.0001 79.9999H65.0001C66.3262 79.9999 67.5979 79.4731 68.5356 78.5354C69.4733 77.5978 70.0001 76.326 70.0001 74.9999V42.0699L71.4651 43.5349C72.4081 44.4457 73.6711 44.9497 74.9821 44.9383C76.2931 44.9269 77.5471 44.401 78.4742 43.474C79.4012 42.547 79.9271 41.2929 79.9385 39.9819C79.9499 38.6709 79.4459 37.4079 78.5351 36.4649L43.5351 1.46491Z" fill="black"/>
</svg>
